<svg width="146" height="209" viewBox="0 0 146 209" fill="none" xmlns="http://www.w3.org/2000/svg">
<path d="M45.6539 41.0824C58.5827 30.1426 74.8083 20.617 91.0958 16.0717C99.3656 13.7638 108.897 3.59254 116.106 3.03795C131.027 1.89023 128.083 27.077 128.083 37.912C128.083 75.1006 129.524 108.596 137.418 144.119C138.928 150.914 144.864 156.629 141.998 163.318C136.903 175.207 118.174 193.26 104.306 193.26C102.79 193.26 94.142 195.979 93.9139 195.726C89.6634 191.003 88.2545 176.183 86.8686 170.363C80.8844 145.229 81.6341 121.126 80.5279 95.6831C79.8044 79.0424 66.208 125.774 59.7444 141.125C55.5544 151.076 52.8648 173.141 51.9946 184.453C51.3407 192.954 51.1696 205.941 41.779 205.941C31.9743 205.941 22.1697 205.941 12.365 205.941C-9.42257 205.941 12.3608 116.649 21.8761 102.905C35.5781 83.1127 47.7802 62.1927 58.3353 41.0824" stroke="#33B04B" stroke-width="5"/>
</svg>
