<svg width="196" height="230" viewBox="0 0 196 230" fill="none" xmlns="http://www.w3.org/2000/svg">
<path d="M10.8028 143.078C8.96021 144.69 6.43318 115.051 8.9028 108.877C12.0675 100.965 13.7475 93.0184 19.4888 86.7551C25.181 80.5454 39.1563 77.1192 47.4467 77.1192C58.6471 77.1192 59.348 67.4416 62.6471 60.0187C64.6904 55.4212 68.0625 44.7588 71.8759 42.3754C74.5572 40.6996 77.8681 37.7568 80.2904 35.5895C83.3639 32.8395 92.4273 31.8575 93.8622 29.3464C100.075 18.4739 129.611 9.42714 140.278 4.37434C150.019 -0.239854 154.201 7.60054 156.835 15.5032C157.93 18.7862 157.19 22.427 157.378 25.8178C157.624 30.2429 162.264 29.9686 162.264 34.368C162.264 38.9432 164.315 50.3677 160.907 53.7757C156.535 58.1478 139.643 62.1093 132.949 62.4616C122.858 62.9927 120.734 63.5498 120.734 74.6762C120.734 82.8454 119.887 94.6575 129.285 98.834C137.337 102.413 144.173 108.289 153.85 110.777C164.026 113.394 171.967 118.098 179.365 124.756C194.071 137.992 200.968 151.264 176.379 160.721C168.599 163.714 157.397 166.898 151.95 171.85C146.78 176.55 137.587 184.326 131.456 187.051C122.494 191.034 120.379 198.152 114.763 205.373C110.312 211.095 107.289 223.093 101.191 226.68C91.9434 232.12 81.6476 198.365 81.6476 190.715C81.6476 183.432 81.6476 176.148 81.6476 168.864C81.6476 161.194 75.1202 156.818 74.3188 150.407C74.0727 148.437 64.8476 139.173 62.1042 137.649C52.4474 132.284 54.7755 148.253 54.7755 154.071C54.7755 160.052 48.7303 167.228 47.311 173.615C45.1746 183.228 31.6843 173.741 27.9033 171.85C21.346 168.572 14.1186 168.923 7.13847 167.372C1.05695 166.02 3.47408 152.639 3.47408 147.964" stroke="#33B04B" stroke-width="5"/>
</svg>
