<svg width="79" height="79" viewBox="0 0 79 79" fill="none" xmlns="http://www.w3.org/2000/svg">
<g clip-path="url(#clip0_16_601)">
<path fill-rule="evenodd" clip-rule="evenodd" d="M32.9168 9.875C32.9168 9.002 32.57 8.16475 31.9527 7.54744C31.3354 6.93014 30.4982 6.58334 29.6252 6.58334C28.7522 6.58334 27.9149 6.93014 27.2976 7.54744C26.6803 8.16475 26.3335 9.002 26.3335 9.875V16.4583C26.3335 17.3313 26.6803 18.1686 27.2976 18.7859C27.9149 19.4032 28.7522 19.75 29.6252 19.75C30.4982 19.75 31.3354 19.4032 31.9527 18.7859C32.57 18.1686 32.9168 17.3313 32.9168 16.4583V9.875ZM17.9858 13.3313C17.6822 13.0169 17.319 12.7661 16.9174 12.5936C16.5158 12.4211 16.0838 12.3303 15.6468 12.3265C15.2097 12.3227 14.7763 12.406 14.3717 12.5715C13.9672 12.737 13.5997 12.9814 13.2906 13.2905C12.9816 13.5995 12.7371 13.967 12.5716 14.3716C12.4061 14.7761 12.3228 15.2096 12.3266 15.6466C12.3304 16.0837 12.4212 16.5156 12.5938 16.9172C12.7663 17.3188 13.017 17.682 13.3314 17.9857L17.9858 22.6467C18.2919 22.9527 18.6552 23.1955 19.0551 23.3611C19.4549 23.5268 19.8835 23.612 20.3163 23.612C20.7492 23.612 21.1777 23.5268 21.5776 23.3611C21.9775 23.1955 22.3408 22.9527 22.6468 22.6467C22.9529 22.3406 23.1957 21.9773 23.3613 21.5774C23.5269 21.1776 23.6122 20.749 23.6122 20.3162C23.6122 19.8834 23.5269 19.4548 23.3613 19.0549C23.1957 18.6551 22.9529 18.2917 22.6468 17.9857L17.9858 13.3313ZM32.2256 27.0246C29.0096 25.9515 25.9517 29.0095 27.0248 32.2254L38.6509 67.1105C39.8261 70.6392 44.7076 70.9223 46.281 67.5516L53.0487 53.0485L67.5518 46.2842C70.9225 44.7107 70.6394 39.8259 67.1107 38.6508L32.2256 27.0246ZM42.9367 59.1513L34.8293 34.8291L59.1547 42.9365L49.4509 47.4626C48.5753 47.8713 47.8714 48.5751 47.4627 49.4507L42.9367 59.1513ZM45.9189 13.3313C46.536 13.9485 46.8827 14.7856 46.8827 15.6585C46.8827 16.5313 46.536 17.3684 45.9189 17.9857L41.2645 22.6467C40.9587 22.9525 40.5956 23.1951 40.196 23.3606C39.7964 23.5261 39.3682 23.6113 38.9357 23.6113C38.5032 23.6113 38.0749 23.5261 37.6753 23.3606C37.2757 23.1951 36.9126 22.9525 36.6068 22.6467C36.301 22.3409 36.0584 21.9778 35.8929 21.5782C35.7274 21.1786 35.6422 20.7503 35.6422 20.3178C35.6422 19.8853 35.7274 19.457 35.8929 19.0575C36.0584 18.6579 36.301 18.2948 36.6068 17.989L41.2645 13.3345C41.8818 12.7175 42.7189 12.3708 43.5917 12.3708C44.4646 12.3708 45.3017 12.7142 45.9189 13.3313ZM6.5835 29.625C6.5835 28.752 6.9303 27.9148 7.5476 27.2975C8.16491 26.6801 9.00216 26.3333 9.87516 26.3333H16.4585C17.3315 26.3333 18.1688 26.6801 18.7861 27.2975C19.4034 27.9148 19.7502 28.752 19.7502 29.625C19.7502 30.498 19.4034 31.3353 18.7861 31.9526C18.1688 32.5699 17.3315 32.9167 16.4585 32.9167H9.87516C9.00216 32.9167 8.16491 32.5699 7.5476 31.9526C6.9303 31.3353 6.5835 30.498 6.5835 29.625ZM22.6435 41.2644C22.9494 40.9587 23.192 40.5959 23.3576 40.1965C23.5232 39.7971 23.6085 39.369 23.6087 38.9367C23.6088 38.5043 23.5238 38.0762 23.3585 37.6767C23.1932 37.2772 22.9508 36.9141 22.6452 36.6083C22.3396 36.3025 21.9767 36.0598 21.5773 35.8942C21.1779 35.7286 20.7499 35.6433 20.3175 35.6432C19.8851 35.643 19.457 35.728 19.0575 35.8933C18.658 36.0587 18.295 36.301 17.9891 36.6066L13.3314 41.2677C12.7142 41.8853 12.3676 42.7228 12.3679 43.596C12.3682 44.4692 12.7154 45.3065 13.3331 45.9237C13.9507 46.5409 14.7883 46.8875 15.6614 46.8872C16.5346 46.8869 17.3719 46.5397 17.9891 45.9221L22.6435 41.2644Z" fill="#33B04B"/>
</g>
<defs>
<clipPath id="clip0_16_601">
<rect width="79" height="79" fill="white"/>
</clipPath>
</defs>
</svg>
