<svg width="283" height="386" viewBox="0 0 283 386" fill="none" xmlns="http://www.w3.org/2000/svg">
<path d="M43.3818 32.8348C50.9212 32.8348 56.5261 29.6943 64.3155 29.6943C76.727 29.6943 89.1385 29.6943 101.55 29.6943C115.82 29.6943 130.091 29.6943 144.361 29.6943C157.388 29.6943 169.031 25.3529 181.853 22.5409C203.104 17.8804 254.949 7.21132 254.949 42.2562C254.949 52.4697 243.244 50.1075 234.874 50.1075C227.053 50.1075 219.94 50.0797 212.482 51.7649C204.517 53.5645 197.753 56.3884 189.317 56.3884C150.524 56.3884 112.844 54.8182 73.9244 54.8182C58.802 54.8182 44.7189 62.6694 29.569 62.6694C23.3633 62.6694 17.1575 62.6694 10.9517 62.6694C6.08723 62.6694 7.86317 56.3648 7.86317 52.5501C7.86317 43.1913 8.6892 39.1157 18.6732 39.1157C23.294 39.1157 38.749 41.5002 38.749 35.9753" stroke="#FFBDE0" stroke-width="5"/>
<path d="M23.3063 39.1157C8.67825 25.8944 46.9816 13.2002 55.8222 12.5087C67.9135 11.563 79.0399 8.81335 90.4829 6.22773C93.8986 5.45592 97.8487 7.02893 101.207 6.05326C105.163 4.90409 108.153 3 112.875 3C131.391 3 149.034 4.57025 167.697 4.57025C181.15 4.57025 194.257 7.71074 207.935 7.71074C210.725 7.71074 217.887 6.12362 217.887 10.0661C217.887 13.9917 217.887 17.9173 217.887 21.843" stroke="#FFBDE0" stroke-width="5"/>
<path d="M12.4959 59.529C6.75767 64.7803 1.6629 63.4887 3.31601 73.574C3.98311 77.6439 14.8294 81.5125 18.6731 81.5125C31.0274 81.5125 43.3817 81.5125 55.7361 81.5125C68.9416 81.5125 80.2136 76.8017 93.4854 76.8017C107.123 76.8017 119.952 78.372 133.723 78.372C160.248 78.372 187.835 76.8017 214.798 76.8017C226.8 76.8017 238.069 73.6612 250.317 73.6612C263.886 73.6612 266.239 50.1076 253.405 50.1076" stroke="#FFBDE0" stroke-width="5"/>
<path d="M3.23047 76.8017C10.9356 84.6363 8.58646 97.0015 11.2951 106.985C12.8497 112.715 13.8265 116.811 14.0405 122.688C14.288 129.483 19.9733 134.372 20.2177 140.833C20.5016 148.338 21.778 154.406 23.6494 161.595C30.2841 187.081 32.6779 211.916 39.5213 236.967C40.4697 240.438 39.7633 243.816 40.3793 247.261C40.901 250.179 43.3821 251.993 43.3821 255.025C43.3821 260.509 44.9263 266.373 44.9263 272.21C44.9263 282.041 48.0149 290.614 48.0149 300.562C48.0149 309.828 51.1035 318.32 51.1035 327.169C51.1035 332.587 50.1899 351.595 57.2807 351.595" stroke="#FFBDE0" stroke-width="5"/>
<path d="M254.95 67.3802C254.95 75.0452 252.024 78.2891 248 84.6529C244.06 90.8861 243.235 98.4835 240.365 105.153C236.246 114.727 239.507 132.377 239.507 142.752C239.507 155.052 239.507 167.353 239.507 179.653C239.507 192.79 245.07 205.022 245.684 218.124C246.718 240.203 247.228 262.073 247.228 284.074C247.228 294.36 247.917 304.867 245.77 314.694C244.62 319.954 240.886 324.715 237.963 329.262C235.166 333.611 229.859 340.585 228.697 345.314" stroke="#FFBDE0" stroke-width="5"/>
<path d="M247.228 75.2314C239.522 75.2314 239.34 84.1349 236.075 89.7125C232.428 95.9431 225.608 101.382 225.608 109.079C225.608 117.546 225.801 124.866 227.839 133.156C229.468 139.78 231.786 148.574 231.786 155.314C231.786 178.053 231.786 200.793 231.786 223.532C231.786 229.197 231.509 233.914 230.327 239.322C229.55 242.876 229.976 246.474 228.697 250.052C227.39 253.706 224.233 255.544 224.064 260.171C223.652 271.494 221.103 287.577 224.836 298.206C227.895 306.914 227.153 315.61 227.153 324.9C227.153 329.306 228.697 333.541 228.697 338.247C228.697 343.084 236.418 344.23 236.418 339.033" stroke="#FFBDE0" stroke-width="5"/>
<path d="M237.962 271.513C239.743 273.323 243.153 279.212 245.684 279.364C249.466 279.59 251.365 275.868 254.95 274.653" stroke="#FFBDE0" stroke-width="5"/>
<path d="M236.418 295.066C236.418 276.296 248.808 300.579 250.317 301.347" stroke="#FFBDE0" stroke-width="5"/>
<path d="M254.95 284.074C254.95 272.681 246.326 235.396 266.532 235.396C283.341 235.396 279.658 262.409 279.658 273.955C279.658 288.843 279.658 303.731 279.658 318.62C279.658 329.176 280.099 337.889 276.57 347.756C275.722 350.126 270.599 363.925 266.532 361.627C263.953 360.17 258.789 353.09 258.124 350.722C255.442 341.178 258.038 326.895 258.038 317.049C258.038 304.322 256.494 292.012 256.494 279.363" stroke="#FFBDE0" stroke-width="5"/>
<path d="M43.3819 276.223C43.3819 271.363 38.7047 271.513 34.8883 271.513C29.2878 271.513 31.0275 276.211 31.0275 280.934C31.0275 289.716 31.0275 298.498 31.0275 307.279C31.0275 324.616 26.8576 359.446 51.1033 359.446" stroke="#FFBDE0" stroke-width="5"/>
<path d="M51.103 346.884C51.103 355.349 48.2505 368.35 55.3927 373.579C61.5556 378.09 67.4196 383 75.8117 383C85.2979 383 93.844 379.86 103.609 379.86C113.144 379.86 122.066 381.43 132.093 381.43C161.89 381.43 189.807 375.149 219.431 375.149C230.413 375.149 233.143 365.645 236.075 355.957C236.678 353.963 240.564 343.565 238.82 342.523C235.224 340.371 232.269 339.279 228.697 337.463" stroke="#FFBDE0" stroke-width="5"/>
<path d="M57.2808 356.305C61.2023 352.761 71.6143 354.735 76.5844 354.735C84.7655 354.735 91.8034 357.875 99.7488 357.875C106.615 357.875 110.915 361.016 117.508 361.016C124.159 361.016 128.35 357.875 135.696 357.875C149.829 357.875 166.63 360.504 180.052 356.305C188.698 353.6 197.152 348.726 205.533 346.535C213.47 344.459 222.054 345.313 230.241 345.313" stroke="#FFBDE0" stroke-width="5"/>
<path d="M80.4443 75.2314C85.8983 75.9246 88.9104 87.6781 92.4555 91.2828C95.3192 94.1946 100.52 105.169 100.52 109.079C100.52 116.97 105.858 122.506 106.697 130.19C107.027 133.21 121.451 131.76 124.542 131.76C131.018 131.76 142.202 134.588 143.674 126.352C144.728 120.46 149.627 113.893 149.937 108.207C150.229 102.872 154.966 95.0672 158.431 91.5445C160.913 89.0205 161.954 85.4039 164.522 83.0826C167.402 80.4795 171.493 82.0796 174.646 79.9421" stroke="#FFBDE0" stroke-width="5"/>
</svg>
